<svg version="1.1" id="Layer_1" xmlns="http://www.w3.org/2000/svg" xmlns:xlink="http://www.w3.org/1999/xlink" x="0px" y="0px"
	 width="100%" viewBox="0 0 1440 1440" enable-background="new 0 0 1440 1440" xml:space="preserve">

<path fill="#4B8CCA" opacity="1.000000" stroke="none" 
	d="
M449.320923,589.312073 
	C436.016022,599.952209 422.683594,610.558167 409.414734,621.243042 
	C398.427582,630.090515 387.549164,639.073120 376.561279,647.919739 
	C363.547119,658.397827 350.433868,668.752747 337.425323,679.237671 
	C324.654633,689.531006 311.981110,699.944702 299.228790,710.260803 
	C286.991943,720.160034 274.720428,730.016541 262.442261,739.864502 
	C252.861176,747.549133 243.242020,755.186401 233.647858,762.854858 
	C220.596527,773.286438 207.546478,783.719727 194.509140,794.168884 
	C189.005417,798.579956 183.636765,803.168701 177.991409,807.388611 
	C176.189133,808.735901 173.709213,809.835388 171.512878,809.885437 
	C160.519073,810.135864 149.516449,810.000061 138.516922,810.000122 
	C137.094269,810.000122 135.671616,810.000122 134.248962,810.000122 
	C134.131256,809.647644 134.013550,809.295227 133.895844,808.942749 
	C138.169571,805.313782 142.363327,801.585266 146.732788,798.075500 
	C157.583633,789.359375 168.527313,780.758911 179.410141,772.082397 
	C192.474594,761.666382 205.542206,751.254089 218.556824,740.776001 
	C229.545029,731.929199 240.426926,722.950378 251.415039,714.103516 
	C264.429413,703.625183 277.525970,693.248962 290.552094,682.785156 
	C302.952362,672.824158 315.283478,662.777039 327.689453,652.823181 
	C342.253845,641.137573 356.897614,629.550781 371.447388,617.847168 
	C382.568604,608.901367 393.589294,599.830688 404.669037,590.833252 
	C418.798187,579.359558 432.717255,567.606384 447.232880,556.643555 
	C450.984802,553.809998 456.555328,552.591125 461.417725,552.195740 
	C470.010803,551.497070 478.701569,552.000061 488.224762,552.000061 
	C486.967010,558.205383 485.837067,564.000061 484.614227,569.775085 
	C479.419464,594.308411 474.242828,618.845764 468.970764,643.362488 
	C464.555115,663.896606 459.959229,684.391907 455.547638,704.926880 
	C450.963898,726.263184 446.505554,747.626343 441.992584,768.977783 
	C439.297791,781.727356 436.672058,794.492554 433.790253,807.199707 
	C433.535065,808.324951 431.631622,809.840820 430.459412,809.871643 
	C421.824310,810.098816 413.180450,809.994446 403.453064,809.994446 
	C409.283630,782.466980 414.996033,755.497437 420.825348,727.975830 
	C387.450439,727.975830 354.179504,727.975830 320.270874,727.747192 
	C319.395782,727.314636 319.146393,727.126526 318.885010,726.954346 
	C321.554596,724.177429 324.011932,721.149719 326.936859,718.674561 
	C333.557159,713.072205 340.328003,707.636963 347.232666,702.390442 
	C348.613770,701.341064 350.861389,701.062439 352.711578,701.056091 
	C377.180786,700.971924 401.650391,701.000000 426.586487,701.000000 
	C429.062439,689.575928 431.542297,678.200500 433.991241,666.818298 
	C437.481506,650.596436 440.976227,634.375488 444.415680,618.142822 
	C446.337219,609.074036 448.150940,599.982300 450.314636,590.369019 
	C450.663696,589.388794 450.711334,588.940491 450.759003,588.492126 
	C450.279663,588.765442 449.800293,589.038757 449.320923,589.312073 
z"/>
<path fill="#4B8CCA" opacity="1.000000" stroke="none" 
	d="
M534.000000,701.000000 
	C552.470581,701.000000 570.441101,701.000000 589.307373,701.000000 
	C588.304443,706.334412 587.478394,711.218506 586.459351,716.062012 
	C582.336853,735.656738 578.173035,755.242798 573.989563,774.824646 
	C570.214233,792.496033 566.436157,810.167053 562.561523,827.816833 
	C561.623413,832.089844 560.477295,836.336243 559.118164,840.493958 
	C556.050781,849.877808 549.682129,854.897949 539.932129,854.942566 
	C509.776703,855.080566 479.620117,854.967834 449.463989,854.940308 
	C449.148102,854.940002 448.832367,854.775696 448.038849,854.555237 
	C449.714996,846.383850 451.243195,838.141418 453.275818,830.025269 
	C453.530426,829.008545 456.444794,828.094849 458.132233,828.085144 
	C480.457397,827.957275 502.784637,827.881958 525.108582,828.091064 
	C530.072571,828.137573 532.123352,826.207397 533.081238,821.526001 
	C537.943115,797.763855 543.007202,774.042847 548.053772,750.318787 
	C549.607910,743.012817 551.330444,735.742676 553.077515,728.006104 
	C536.901489,728.006104 521.094238,728.017029 505.287048,727.998840 
	C501.086090,727.994019 500.740234,731.531128 500.147156,734.159241 
	C497.889008,744.165894 496.002106,754.256531 493.993469,764.319153 
	C492.908875,769.752563 491.726807,775.173218 490.912292,780.647827 
	C490.762238,781.656372 491.910889,783.456116 492.904694,783.903931 
	C494.620300,784.677002 496.682343,784.939819 498.602966,784.956299 
	C509.241699,785.047607 519.881592,785.000000 531.268921,785.000000 
	C529.955505,791.310364 528.208496,797.077332 527.680054,802.953918 
	C527.109192,809.302490 524.007751,810.295288 518.372131,810.132568 
	C504.388458,809.729004 490.385284,810.000122 476.389954,810.000000 
	C459.690643,809.999939 454.774261,804.379028 458.092499,788.294739 
	C462.894257,765.019653 467.853668,741.773804 473.088226,718.592712 
	C475.693024,707.057373 482.402069,701.273071 495.014099,701.050232 
	C507.839020,700.823547 520.671082,701.000061 534.000000,701.000000 
z"/>
<path fill="#004E7F" opacity="1.000000" stroke="none" 
	d="
M1223.018555,748.901001 
	C1217.571533,756.340393 1210.526489,759.915710 1201.603271,760.029541 
	C1181.656128,760.284058 1161.710938,760.672363 1141.764771,760.997437 
	C1139.789429,761.029663 1137.812988,761.001709 1135.377075,761.001709 
	C1132.543579,774.326843 1129.775146,787.340576 1127.015137,800.356140 
	C1126.946777,800.678406 1127.005737,801.026550 1126.946289,801.351868 
	C1125.365723,809.999512 1125.364258,809.999512 1116.652466,809.999878 
	C1108.018066,810.000244 1099.383667,810.000000 1089.564697,810.000000 
	C1097.625610,772.037415 1105.535034,734.788757 1113.497314,697.290527 
	C1125.239136,697.290527 1136.832153,697.290527 1148.779175,697.290527 
	C1146.388184,708.770386 1144.055176,719.972046 1141.550171,732.000000 
	C1147.280273,732.000000 1152.063721,732.000061 1156.847290,732.000000 
	C1166.343994,731.999878 1175.840698,732.006592 1185.337402,731.997314 
	C1192.703491,731.990112 1195.329224,730.035400 1196.838501,723.078735 
	C1199.005127,713.092285 1201.059082,703.081055 1203.103149,693.068604 
	C1204.117554,688.100037 1203.217896,687.032166 1197.890259,687.018860 
	C1181.396118,686.977661 1164.901733,687.002075 1148.407471,687.001404 
	C1137.783691,687.001038 1127.160034,687.001404 1115.719727,687.001404 
	C1117.143433,680.033203 1118.238770,673.761963 1119.726685,667.585266 
	C1122.523193,655.976379 1122.617432,655.999023 1134.383301,655.999084 
	C1163.206543,655.999084 1192.029907,655.991455 1220.853149,656.016235 
	C1222.836914,656.017944 1224.882568,655.994446 1226.793945,656.437805 
	C1238.235962,659.091919 1242.394409,665.416931 1240.095215,677.099854 
	C1236.182007,696.983582 1232.194458,716.855164 1227.921875,736.663635 
	C1227.033936,740.779602 1224.768677,744.598450 1223.018555,748.901001 
z"/>
<path fill="#004E7F" opacity="1.000000" stroke="none" 
	d="
M1257.235352,809.942261 
	C1245.383911,809.972107 1233.962158,809.972107 1221.105347,809.972107 
	C1226.579468,803.163086 1231.161133,797.438049 1235.770630,791.735596 
	C1248.331787,776.196350 1260.889404,760.654114 1273.482910,745.141174 
	C1277.025757,740.777100 1280.589966,736.422668 1284.331177,732.230591 
	C1286.700684,729.575684 1287.697510,727.229126 1286.101929,723.520569 
	C1277.748535,704.105103 1269.691284,684.562256 1261.537231,665.061096 
	C1260.402344,662.346375 1259.302002,659.617188 1257.818359,655.999023 
	C1262.362061,655.999023 1266.269531,655.998840 1270.177002,655.999084 
	C1277.342285,655.999512 1284.511475,656.141846 1291.670898,655.937683 
	C1294.983887,655.843262 1296.816040,656.894409 1297.983032,660.114746 
	C1303.942749,676.561401 1310.087646,692.941040 1316.191895,709.335144 
	C1316.416992,709.939697 1316.892822,710.450867 1317.515747,711.413635 
	C1324.384766,702.954651 1331.158936,694.685364 1337.851929,686.350830 
	C1345.293091,677.084717 1352.626099,667.731567 1360.105957,658.497131 
	C1360.976685,657.422241 1362.471069,656.186707 1363.694580,656.167297 
	C1374.946533,655.988770 1386.202637,656.062195 1398.875977,656.062195 
	C1393.062622,663.192627 1388.142700,669.281372 1383.164429,675.322021 
	C1372.343994,688.451904 1361.504028,701.565735 1350.650391,714.668213 
	C1346.852783,719.252686 1343.149048,723.931702 1339.088745,728.274292 
	C1337.255737,730.234863 1337.431274,731.625916 1338.328979,733.900146 
	C1348.201416,758.910400 1357.925903,783.979065 1368.067993,810.000000 
	C1364.393677,810.000000 1361.177734,810.000061 1357.961914,810.000000 
	C1349.963501,809.999878 1341.953369,809.740356 1333.971680,810.105835 
	C1329.810303,810.296387 1328.251831,808.597473 1327.003296,804.940674 
	C1320.665039,786.373840 1314.068115,767.895203 1307.261963,748.532471 
	C1299.583496,758.332764 1292.301025,767.607483 1285.040771,776.899353 
	C1277.316772,786.784668 1269.652832,796.717285 1261.856323,806.544922 
	C1260.770142,807.914124 1259.077026,808.801819 1257.235352,809.942261 
z"/>
<path fill="#004E7F" opacity="1.000000" stroke="none" 
	d="
M271.798828,869.760620 
	C267.456360,873.369019 263.412384,876.777954 259.274811,880.069275 
	C258.569214,880.630615 257.464081,880.939819 256.542633,880.941895 
	C243.885025,880.970276 231.227203,880.930664 218.569626,880.868042 
	C218.170395,880.866089 217.773270,880.440369 216.693863,879.821899 
	C258.604736,846.087585 300.194458,812.611755 341.784180,779.135864 
	C341.713837,778.766357 341.643494,778.396790 341.573151,778.027222 
	C315.207947,778.027222 288.842712,778.027222 262.477478,778.027222 
	C262.274170,777.519348 262.070831,777.011475 261.867493,776.503540 
	C266.574829,772.531555 271.223328,768.486938 276.007690,764.609985 
	C279.977692,761.392944 284.458160,758.726196 288.055389,755.153992 
	C290.907349,752.321960 293.891632,751.952942 297.482544,751.960815 
	C328.463898,752.028381 359.445435,751.999634 390.426941,751.999634 
	C392.238464,751.999634 394.049988,751.999634 396.597687,751.999634 
	C394.993439,759.688782 393.534607,766.883545 391.987640,774.059326 
	C386.363556,800.147217 380.719055,826.230774 375.039154,852.306519 
	C374.770172,853.541321 374.424316,855.102173 373.547913,855.809265 
	C363.704315,863.751648 353.749481,871.556091 343.824585,879.397705 
	C343.409637,879.197266 342.994720,878.996826 342.579773,878.796387 
	C348.121887,852.905396 353.664001,827.014343 359.206146,801.123352 
	C358.833771,800.922302 358.461365,800.721252 358.088989,800.520142 
	C349.263336,807.643616 340.461182,814.796509 331.606384,821.883545 
	C318.980896,831.988403 306.306458,842.032104 293.673187,852.127258 
	C286.449951,857.899353 279.266876,863.721680 271.798828,869.760620 
z"/>
<path fill="#4B8CCA" opacity="1.000000" stroke="none" 
	d="
M880.092834,746.000000 
	C892.069580,746.000000 903.560608,746.000000 915.543884,746.000000 
	C916.691711,741.006531 917.921997,736.023071 918.961792,731.000061 
	C919.651733,727.667480 917.971619,726.023010 914.689453,726.017334 
	C900.530151,725.992676 886.370300,725.932495 872.211975,726.048096 
	C867.577881,726.085938 865.855835,729.467041 865.039185,733.425110 
	C861.946411,748.415161 859.206299,763.488708 855.639648,778.364441 
	C854.388306,783.583618 856.198730,784.045593 860.319824,784.032715 
	C882.641296,783.962952 904.963074,783.992554 927.284790,784.013733 
	C929.009705,784.015320 930.734497,784.215393 932.826599,784.346069 
	C931.019653,793.178650 929.367432,801.255249 927.578491,810.000000 
	C926.057007,810.000000 924.289246,810.000000 922.521484,810.000000 
	C895.868713,810.000000 869.215759,810.040466 842.563232,809.953918 
	C838.807251,809.941711 835.003845,809.579346 831.309204,808.903931 
	C824.779419,807.710144 820.548157,800.615540 822.087402,793.242004 
	C826.510925,772.051819 831.093506,750.894531 835.661560,729.734741 
	C836.654907,725.133911 837.613403,720.503784 838.998291,716.013733 
	C841.958130,706.416931 849.390381,701.021790 859.367554,701.010071 
	C884.687683,700.980347 910.007874,700.999756 935.328003,701.000183 
	C948.489746,701.000366 953.471863,706.796936 950.898132,719.770386 
	C948.143616,733.656067 944.966919,747.457764 941.999695,761.301636 
	C941.514648,763.564758 940.785583,765.076050 937.905212,765.059998 
	C915.418274,764.934998 892.930603,764.962585 870.443115,764.927979 
	C870.138306,764.927490 869.833740,764.731323 868.662231,764.328308 
	C869.750000,758.455994 870.862610,752.449707 872.057373,746.000000 
	C874.675903,746.000000 877.141479,746.000000 880.092834,746.000000 
z"/>
<path fill="#4B8CCA" opacity="1.000000" stroke="none" 
	d="
M772.006958,692.048096 
	C773.478271,684.937805 774.942505,678.259155 776.474182,671.272827 
	C786.331421,671.272827 796.421021,671.272827 807.247559,671.272827 
	C805.162720,681.111694 803.126404,690.721558 800.989380,700.806519 
	C809.581787,700.806519 817.986633,700.806519 826.762268,700.806519 
	C825.420593,708.265076 824.349548,715.259583 822.751465,722.131470 
	C822.468323,723.349121 820.025818,724.796936 818.518860,724.870056 
	C812.206299,725.176636 805.861877,724.826111 799.548706,725.127014 
	C798.025940,725.199646 795.520264,726.607605 795.255371,727.799194 
	C791.652527,744.003845 788.350037,760.275452 785.015137,776.539124 
	C784.494080,779.080078 784.180054,781.663513 783.679077,784.798340 
	C791.898254,784.798340 799.644287,784.798340 808.234863,784.798340 
	C807.032593,791.058960 805.956726,796.707520 804.857422,802.351501 
	C804.609436,803.624451 804.179688,804.868225 804.009277,806.148804 
	C803.656555,808.799194 802.566467,810.108765 799.552795,810.064392 
	C788.398926,809.900208 777.238708,810.140930 766.085510,809.954773 
	C756.998291,809.803162 751.051636,805.646179 751.106750,799.310059 
	C751.152100,794.099060 751.710144,788.814636 752.740601,783.703796 
	C757.017761,762.488953 761.542419,741.323914 766.013428,720.148499 
	C767.962891,710.915833 770.001709,701.702026 772.006958,692.048096 
z"/>
<path fill="#4B8CCA" opacity="1.000000" stroke="none" 
	d="
M986.309082,796.347046 
	C985.273560,801.020386 984.455017,805.321350 983.603088,809.798340 
	C973.573608,809.798340 963.630066,809.798340 952.654480,809.798340 
	C953.924011,803.454041 955.101929,797.341980 956.374451,791.249634 
	C960.566772,771.178528 964.767090,751.109009 969.014282,731.049438 
	C973.092773,711.786377 977.245178,692.539001 981.337952,673.278931 
	C982.285278,668.821289 982.957642,664.297363 984.104736,659.894592 
	C984.480164,658.453430 985.925903,656.212830 986.936707,656.183105 
	C996.544800,655.899963 1006.164490,656.014282 1016.015381,656.014282 
	C1006.112305,703.015686 996.319153,749.495239 986.309082,796.347046 
z"/>
<path fill="#4B8CCA" opacity="1.000000" stroke="none" 
	d="
M667.727173,683.578125 
	C669.668579,674.255615 671.418030,665.319702 673.200623,656.214233 
	C683.488586,656.214233 693.589600,656.214233 704.162903,656.214233 
	C693.296692,707.551392 682.493103,758.592834 671.660095,809.773438 
	C661.449402,809.773438 651.347595,809.773438 640.800049,809.773438 
	C649.755188,767.632874 658.645142,725.798828 667.727173,683.578125 
z"/>
<path fill="#4B8CCA" opacity="1.000000" stroke="none" 
	d="
M1031.747559,723.751343 
	C1039.309937,716.524841 1046.583252,709.506592 1053.981323,702.622498 
	C1054.943237,701.727539 1056.542358,701.091309 1057.857666,701.071289 
	C1066.679688,700.937134 1075.505371,700.953308 1084.328247,701.057617 
	C1085.583496,701.072449 1086.830078,701.828918 1088.766602,702.468750 
	C1073.498047,716.420532 1058.942749,729.720459 1043.314941,744.000549 
	C1050.928711,744.000549 1057.318115,743.675049 1063.661255,744.076904 
	C1073.158081,744.678711 1078.427002,748.589478 1078.845337,756.555542 
	C1079.116821,761.726257 1078.307983,767.044312 1077.330566,772.171997 
	C1074.954590,784.635925 1072.197998,797.027283 1069.534302,809.735779 
	C1059.624512,809.735779 1049.537598,809.735779 1038.830200,809.735779 
	C1039.940186,803.984131 1040.929932,798.442993 1042.091431,792.938049 
	C1043.634033,785.627563 1045.376465,778.359070 1046.900391,771.044861 
	C1047.608887,767.644653 1044.502930,765.044495 1039.671509,765.020386 
	C1027.684448,764.960571 1015.696777,765.000366 1003.709351,765.000122 
	C1001.915161,765.000061 1000.120972,765.000122 998.214722,765.000122 
	C997.486511,757.099304 1000.846680,751.705078 1006.313049,747.121826 
	C1010.484558,743.624390 1014.380859,739.798157 1018.389465,736.107178 
	C1022.764771,732.078430 1027.128540,728.037048 1031.747559,723.751343 
z"/>
<path fill="#4B8CCA" opacity="1.000000" stroke="none" 
	d="
M594.186951,810.000000 
	C591.721619,810.000000 589.730164,810.000000 587.210571,810.000000 
	C594.907715,773.592102 602.538147,737.499939 610.208069,701.221191 
	C620.443848,701.221191 630.554199,701.221191 641.009399,701.221191 
	C638.520813,713.222229 636.112366,724.983826 633.639282,736.731689 
	C628.775391,759.836975 623.827942,782.924805 619.049500,806.047607 
	C618.435425,809.018738 617.257751,810.167114 614.156616,810.064697 
	C607.664368,809.850403 601.160095,809.999939 594.186951,810.000000 
z"/>
<path fill="#4B8CCA" opacity="1.000000" stroke="none" 
	d="
M702.999390,768.002380 
	C706.007935,753.569153 709.006592,739.566895 711.997559,725.563049 
	C713.725891,717.470703 715.441589,709.375732 717.185913,701.174316 
	C727.422302,701.174316 737.381653,701.174316 747.891357,701.174316 
	C745.129089,714.458740 742.422546,727.572510 739.672852,740.677246 
	C735.462219,760.744873 731.069885,780.776062 727.063110,800.884155 
	C725.260132,809.932678 725.598022,810.000000 716.553101,810.000000 
	C709.237061,810.000000 701.921021,810.000000 694.139954,810.000000 
	C697.136658,795.918884 700.061462,782.175781 702.999390,768.002380 
z"/>
<path fill="#4B8CCA" opacity="1.000000" stroke="none" 
	d="
M618.217041,688.999390 
	C616.267151,688.999390 614.791016,688.999390 612.976624,688.999390 
	C615.056763,678.511536 616.973816,668.471680 619.143372,658.486633 
	C619.359985,657.489685 621.098267,656.136353 622.153015,656.115845 
	C631.631470,655.931213 641.114929,656.007996 650.863708,656.007996 
	C648.485962,667.141357 646.186768,677.907288 643.817871,688.999390 
	C635.310242,688.999390 627.000488,688.999390 618.217041,688.999390 
z"/>
<path fill="#4B8CCA" opacity="1.000000" stroke="none" 
	d="
M727.641113,656.204224 
	C737.871582,656.059143 747.674683,656.059143 757.724731,656.059143 
	C755.406921,667.121765 753.145386,677.915894 750.869995,688.776184 
	C740.456421,688.776184 730.358459,688.776184 719.600464,688.776184 
	C722.193542,677.731812 724.703674,667.040588 727.641113,656.204224 
z"/>
<path fill="#4F88CE" opacity="1.000000" stroke="none" 
	d="
M318.640686,727.080566 
	C319.146393,727.126526 319.395782,727.314636 319.805359,727.677734 
	C319.450500,727.626831 318.923431,727.416809 318.640686,727.080566 
z"/>

</svg>